<?xml version="1.0" standalone="no"?>
<!DOCTYPE svg PUBLIC "-//W3C//DTD SVG 20010904//EN"
 "http://www.w3.org/TR/2001/REC-SVG-20010904/DTD/svg10.dtd">
<svg version="1.0" xmlns="http://www.w3.org/2000/svg"
 width="300.000000pt" height="300.000000pt" viewBox="0 0 300.000000 300.000000"
 preserveAspectRatio="xMidYMid meet">
<metadata>
Created by potrace 1.10, written by Peter Selinger 2001-2011
</metadata>
<g transform="translate(0.000000,300.000000) scale(0.100000,-0.100000)"
fill="#ff7c00" stroke="none">
<path d="M75 2992 c-41 -10 -78 -67 -70 -107 3 -16 17 -41 30 -55 25 -25 28
-25 220 -28 171 -3 195 -5 199 -20 5 -17 337 -1467 375 -1639 l21 -91 -107
-269 c-114 -289 -128 -342 -95 -383 20 -25 23 -25 185 -28 l164 -3 6 -50 c14
-117 94 -227 206 -282 58 -28 75 -32 146 -32 65 1 91 6 136 27 112 51 175 131
208 259 l19 74 164 3 165 2 6 -53 c11 -113 101 -233 210 -283 87 -40 196 -40
279 -2 110 51 187 153 210 277 l12 61 88 0 c81 0 91 2 113 24 32 32 40 69 25
107 -22 51 -43 59 -165 59 l-111 0 -65 64 c-87 84 -151 110 -264 104 -100 -6
-166 -37 -242 -114 l-52 -54 -212 0 -213 0 -53 55 c-32 34 -75 67 -110 83 -50
23 -71 27 -153 27 -114 0 -152 -16 -246 -106 l-61 -59 -85 0 c-46 0 -87 3 -90
6 -3 3 34 105 83 227 49 122 89 233 89 247 0 14 -12 82 -27 152 -14 71 -24
130 -22 133 3 2 349 43 770 90 919 102 914 102 939 115 11 6 24 19 30 30 8 14
178 851 213 1045 6 37 -14 90 -41 104 -28 15 -85 14 -103 -1 -9 -7 -23 -25
-32 -40 l-17 -28 -539 0 c-817 0 -1532 11 -1536 24 -2 6 -18 72 -35 146 -24
101 -38 141 -56 160 l-24 25 -228 2 c-125 1 -240 -2 -257 -5z m1012 -627 c6
-44 14 -121 18 -171 l8 -92 -119 -6 c-66 -4 -134 -8 -151 -11 -38 -4 -32 -19
-83 207 -17 76 -28 143 -25 148 4 7 67 9 173 8 l167 -3 12 -80z m543 -74 l0
-160 -52 -5 c-29 -3 -101 -7 -161 -9 -102 -4 -108 -3 -112 17 -13 63 -37 287
-32 301 5 13 33 15 182 15 l175 0 0 -159z m534 149 c5 -6 -18 -278 -25 -284
-2 -2 -75 -7 -161 -11 l-158 -7 0 157 0 156 169 -3 c93 -2 172 -5 175 -8z
m535 1 c13 -8 12 -27 -9 -134 l-23 -124 -90 -7 c-50 -3 -124 -6 -165 -6 l-75
0 7 109 c3 61 9 124 12 140 l7 31 161 0 c88 0 168 -4 175 -9z m-77 -466 c5 -5
-45 -262 -53 -269 -6 -6 -272 -37 -276 -32 -2 2 2 68 9 147 l13 144 80 6 c115
8 221 10 227 4z m-502 -65 c0 -60 -22 -244 -30 -253 -6 -7 -209 -35 -257 -37
-10 0 -13 38 -13 159 l0 160 43 4 c23 2 90 4 150 5 l107 2 0 -40z m-490 -145
l0 -164 -32 -6 c-79 -13 -213 -24 -219 -17 -9 10 -42 281 -38 312 4 23 9 25
74 31 39 3 103 6 143 7 l72 2 0 -165z m-487 123 c11 -45 40 -328 35 -333 -9
-9 -126 -25 -185 -25 -52 0 -52 0 -62 38 -28 98 -73 313 -67 319 3 3 59 9 123
13 65 4 125 8 134 8 10 1 19 -8 22 -20z m258 -1359 c77 -26 123 -95 117 -175
-8 -97 -84 -161 -179 -152 -88 9 -149 76 -149 163 0 73 38 128 110 159 43 19
57 19 101 5z m1080 -14 c117 -61 116 -235 -2 -296 -109 -55 -240 23 -241 145
-2 130 128 210 243 151z"/>
</g>
</svg>
